<?xml version="1.0" encoding="utf-8"?>
<!-- Generator: Adobe Illustrator 22.1.0, SVG Export Plug-In . SVG Version: 6.00 Build 0)  -->
<svg version="1.1" id="Layer_1" xmlns="http://www.w3.org/2000/svg" xmlns:xlink="http://www.w3.org/1999/xlink" x="0px" y="0px"
	 viewBox="0 0 170 141.1" style="enable-background:new 0 0 170 141.1;" xml:space="preserve">
<style type="text/css">
	.st0{opacity:0.8;fill:#002895;}
	.st1{fill:#6B88B2;}
	.st2{fill:none;stroke:#6B88B2;stroke-width:4;stroke-linecap:round;stroke-linejoin:round;stroke-miterlimit:10;}
	.st3{opacity:0.8;}
	.st4{fill:#002895;}
	.st5{fill:none;stroke:#4EC9B0;stroke-width:3;stroke-linecap:round;stroke-linejoin:round;stroke-miterlimit:10;}
	.st6{fill:#4EC9B0;}
	.st7{fill:none;stroke:#FFFFFF;stroke-width:3;stroke-linecap:round;stroke-linejoin:round;stroke-miterlimit:10;}
	.st8{fill:none;stroke:#002895;stroke-width:3;stroke-linecap:round;stroke-linejoin:round;stroke-miterlimit:10;}
	.st9{fill:none;stroke:#FFFFFF;stroke-width:3;stroke-linecap:round;stroke-miterlimit:10;}
	.st10{fill:none;stroke:#52B9FF;stroke-width:3;stroke-linecap:round;stroke-linejoin:round;stroke-miterlimit:10;}
	.st11{fill:none;stroke:#4EC9B0;stroke-width:4;stroke-linecap:round;stroke-miterlimit:10;}
	.st12{fill:none;stroke:#52B9FF;stroke-width:4;stroke-linecap:round;stroke-linejoin:round;stroke-miterlimit:10;}
	.st13{fill:none;stroke:#FFFFFF;stroke-width:4;stroke-linecap:round;stroke-miterlimit:10;}
	.st14{fill:#FFFFFF;}
	.st15{fill:#52B9FF;}
	.st16{opacity:0.3;fill:#4EC9B0;}
	.st17{opacity:0.3;fill:#FBC547;}
	.st18{fill:#DEF1F7;}
	.st19{fill:none;stroke:#FFFFFF;stroke-width:4;stroke-linecap:round;stroke-linejoin:round;stroke-miterlimit:10;}
	.st20{fill:none;stroke:#52B9FF;stroke-width:4;stroke-miterlimit:10;}
	.st21{opacity:0.4;fill:none;stroke:#DEF1F6;stroke-width:4;stroke-linecap:round;stroke-linejoin:round;stroke-miterlimit:10;}
	.st22{fill:none;stroke:#FF7676;stroke-width:4;stroke-linecap:round;stroke-linejoin:round;stroke-miterlimit:10;}
	.st23{opacity:0.3;fill:#FF7676;}
	.st24{fill:none;stroke:#FBC547;stroke-width:4;stroke-linecap:round;stroke-linejoin:round;stroke-miterlimit:10;}
</style>
<path class="st16" d="M168.7,115.4c0,5.3-4.3,9.6-9.6,9.6H37.4c-5.3,0-9.6-4.3-9.6-9.6v-91c0-5.3,4.3-9.6,9.6-9.6h121.7
	c5.3,0,9.6,4.3,9.6,9.6V115.4z"/>
<line class="st2" x1="149.1" y1="23.3" x2="159.2" y2="33.5"/>
<line class="st2" x1="158.6" y1="23.3" x2="148.4" y2="33.5"/>
<path class="st1" d="M158.1,70.4c0,2.1-1.7,3.8-3.8,3.8l0,0c-2.1,0-3.8-1.7-3.8-3.8V52.2c0-2.1,1.7-3.8,3.8-3.8l0,0
	c2.1,0,3.8,1.7,3.8,3.8V70.4z"/>
<path class="st1" d="M39.2,31.3c-2.1,0-3.8-1.7-3.8-3.8l0,0c0-2.1,1.7-3.8,3.8-3.8h98.7c2.1,0,3.8,1.7,3.8,3.8l0,0
	c0,2.1-1.7,3.8-3.8,3.8H39.2z"/>
<path class="st21" d="M79,136.4H11.6c-5.1,0-9.3-4.2-9.3-9.3V11.8c0-5.1,4.2-9.3,9.3-9.3H79c5.1,0,9.3,4.2,9.3,9.3v115.4
	C88.3,132.3,84.1,136.4,79,136.4z"/>
<path class="st21" d="M36.1,122.9c-2,0-3.6-1.6-3.6-3.6v-0.2c0-2,1.6-3.6,3.6-3.6h17c2,0,3.6,1.6,3.6,3.6v0.2c0,2-1.6,3.6-3.6,3.6
	H36.1z"/>
<g>
	<g id="android">
		<path class="st6" d="M27.8,89.8c0,1.7,1.2,2.9,2.9,2.9h2.9v10.1c0,2.3,2,4.3,4.3,4.3s4.3-2,4.3-4.3V92.7H48v10.1
			c0,2.3,2,4.3,4.3,4.3s4.3-2,4.3-4.3V92.7h2.9c1.7,0,2.9-1.2,2.9-2.9V60.9H27.8V89.8z M20.6,60.9c-2.3,0-4.3,2-4.3,4.3v20.2
			c0,2.3,2,4.3,4.3,4.3s4.3-2,4.3-4.3V65.3C24.9,63,22.9,60.9,20.6,60.9z M69.7,60.9c-2.3,0-4.3,2-4.3,4.3v20.2c0,2.3,2,4.3,4.3,4.3
			s4.3-2,4.3-4.3V65.3C74,63,72,60.9,69.7,60.9z M55.2,44.2l3.8-3.8c0.6-0.6,0.6-1.4,0-2c-0.6-0.6-1.4-0.6-2,0l-4.3,4.3
			c-2-1.4-4.6-2-7.5-2s-5.5,0.6-7.8,1.7l-4-4.3c-0.6-0.3-1.7-0.3-2.3,0c-0.3,0.6-0.3,1.7,0,2.3l3.8,3.8c-4,3.2-6.9,8.1-6.9,13.9
			h34.7C62.5,52.3,59.6,47.1,55.2,44.2z M39.4,52.3h-2.9v-2.9h2.9V52.3z M53.8,52.3h-2.9v-2.9h2.9V52.3z"/>
	</g>
</g>
<circle class="st14" cx="101.1" cy="74.5" r="8.7"/>
<path class="st19" d="M92.4,47.2c2.7-0.9,5.7-1.3,8.7-1.3c15.8,0,28.6,12.8,28.6,28.6S116.9,103,101.1,103c-3,0-5.9-0.5-8.7-1.3"/>
<path class="st19" d="M93.4,63.5c2.2-1.5,4.8-2.5,7.7-2.5c7.4,0,13.4,6,13.4,13.4c0,7.4-6,13.4-13.4,13.4c-2.9,0-5.6-0.9-7.8-2.5"/>
<line class="st19" x1="125.8" y1="61.1" x2="101.1" y2="61.1"/>
<line class="st19" x1="100.6" y1="102.4" x2="113" y2="81"/>
</svg>
