<?xml version="1.0" encoding="utf-8"?>
<!-- Generator: Adobe Illustrator 22.1.0, SVG Export Plug-In . SVG Version: 6.00 Build 0)  -->
<svg version="1.1" id="Layer_1" xmlns="http://www.w3.org/2000/svg" xmlns:xlink="http://www.w3.org/1999/xlink" x="0px" y="0px"
	 viewBox="0 0 170 145.4" style="enable-background:new 0 0 170 145.4;" xml:space="preserve">
<style type="text/css">
	.st0{opacity:0.8;fill:#002895;}
	.st1{fill:#6B88B2;}
	.st2{fill:none;stroke:#6B88B2;stroke-width:4;stroke-linecap:round;stroke-linejoin:round;stroke-miterlimit:10;}
	.st3{opacity:0.8;}
	.st4{fill:#002895;}
	.st5{fill:none;stroke:#4EC9B0;stroke-width:3;stroke-linecap:round;stroke-linejoin:round;stroke-miterlimit:10;}
	.st6{fill:#4EC9B0;}
	.st7{fill:none;stroke:#FFFFFF;stroke-width:3;stroke-linecap:round;stroke-linejoin:round;stroke-miterlimit:10;}
	.st8{fill:none;stroke:#002895;stroke-width:3;stroke-linecap:round;stroke-linejoin:round;stroke-miterlimit:10;}
	.st9{fill:none;stroke:#FFFFFF;stroke-width:3;stroke-linecap:round;stroke-miterlimit:10;}
	.st10{fill:none;stroke:#52B9FF;stroke-width:3;stroke-linecap:round;stroke-linejoin:round;stroke-miterlimit:10;}
	.st11{fill:none;stroke:#4EC9B0;stroke-width:4;stroke-linecap:round;stroke-miterlimit:10;}
	.st12{fill:none;stroke:#52B9FF;stroke-width:4;stroke-linecap:round;stroke-linejoin:round;stroke-miterlimit:10;}
	.st13{fill:none;stroke:#FFFFFF;stroke-width:4;stroke-linecap:round;stroke-miterlimit:10;}
	.st14{fill:#FFFFFF;}
	.st15{fill:#52B9FF;}
	.st16{opacity:0.3;fill:#4EC9B0;}
	.st17{opacity:0.3;fill:#FBC547;}
	.st18{fill:#DEF1F7;}
	.st19{fill:none;stroke:#FFFFFF;stroke-width:4;stroke-linecap:round;stroke-linejoin:round;stroke-miterlimit:10;}
	.st20{fill:none;stroke:#52B9FF;stroke-width:4;stroke-miterlimit:10;}
	.st21{opacity:0.4;fill:none;stroke:#DEF1F6;stroke-width:4;stroke-linecap:round;stroke-linejoin:round;stroke-miterlimit:10;}
	.st22{fill:none;stroke:#FF7676;stroke-width:4;stroke-linecap:round;stroke-linejoin:round;stroke-miterlimit:10;}
	.st23{opacity:0.3;fill:#FF7676;}
	.st24{fill:none;stroke:#FBC547;stroke-width:4;stroke-linecap:round;stroke-linejoin:round;stroke-miterlimit:10;}
</style>
<circle class="st16" cx="85.1" cy="72.4" r="71.3"/>
<path class="st15" d="M111.2,46.3L111.2,46.3c14.4,14.4,14.4,37.9,0,52.3l0,0c-14.4,14.4-37.9,14.4-52.3,0l0,0
	c-14.4-14.4-14.4-37.9,0-52.3l0,0C73.3,31.9,96.8,31.9,111.2,46.3z"/>
<path class="st15" d="M115.5,136.9L85.1,72.4l-28.1,65.5C75.6,145.9,97.1,145.6,115.5,136.9z"/>
<path class="st18" d="M120.5,86.2H49.6l-5.3,7.5c-2.9,4.3,0.2,9.9,5.4,9.9h70.6c5.2,0,8.4-5.6,5.4-9.9L120.5,86.2z"/>
<circle class="st19" cx="98" cy="44.7" r="9.3"/>
<g>
	<line class="st13" x1="76.7" y1="65.3" x2="76.7" y2="67.9"/>
	<line class="st13" x1="76.7" y1="52.2" x2="76.7" y2="54.8"/>
	<line class="st13" x1="69.8" y1="60.1" x2="72.4" y2="60.1"/>
	<line class="st13" x1="81.1" y1="60.1" x2="83.7" y2="60.1"/>
</g>
<path class="st18" d="M49.8,86.2l10-14.5c2.7-4,8.5-3.6,11.1,0.3l0.2,0.3l0,0c2.2,3.1,6.3,3.6,9.2,1.7c0.6-0.4,10.3-9.1,11.9-10
	c5.1-2.8,11.8-1.8,15.5,3.6l12.8,18.6H49.8z"/>
<circle class="st20" cx="92.4" cy="86.1" r="5.2"/>
</svg>
