<svg width="200" height="200" viewBox="0 0 407 279" xmlns="http://www.w3.org/2000/svg">
    <g transform="matrix(.1 0 0 -.1 0 279)" fill="#2ddf95" class="color000 svgShape">
        <path d="M1945 2640 c-335 -30 -605 -104 -910 -249 -449 -214 -803 -558 -944-917 -52 -135 -65 -307 -31 -438 34 -134 83 -201 216 -296 l49 -36 -4 146 c-6
263 45 438 194 665 235 357 716 686 1175 804 216 55 299 66 510 65 224 0 293
-13 437 -84 192 -95 267 -235 215 -407 -28 -92 -85 -167 -176 -236 -103 -78
-174 -115 -361 -187 -88 -35 -166 -68 -173 -75 -12 -10 -9 -20 13 -55 154
-244 443 -314 720 -176 108 54 167 101 252 204 109 131 161 262 170 433 17
297 -153 541 -496 713 -190 96 -569 151 -856 126z" fill="#2ddf95" class="color000 svgShape"/>
        <path d="M1866 2044 c-113 -21 -238 -65 -363 -128 -261 -131 -456 -320 -580
-562 -67 -129 -93 -222 -100 -355 -7 -122 7 -214 44 -309 125 -312 401 -498
818 -551 139 -17 460 -15 630 5 360 43 711 155 974 311 268 159 442 327 570
550 92 161 130 291 138 475 9 213 -45 404 -152 539 l-35 44 0 -134 c0 -327
-121 -578 -392 -811 -161 -139 -373 -256 -592 -327 -230 -75 -338 -86 -502
-52 -158 33 -282 102 -460 257 -41 36 -76 64 -78 62 -1 -1 -15 -56 -30 -120
-15 -65 -38 -133 -50 -150 -12 -19 -47 -46 -81 -63 -79 -40 -175 -42 -249 -5
-78 39 -91 64 -90 173 1 101 -1 96 126 407 73 179 101 230 157 288 73 75 170
111 356 132 267 30 418 98 418 188 0 47 -40 102 -92 125 -61 27 -267 34 -385
11z" fill="#2ddf95" class="color000 svgShape"/>
    </g>
</svg>