<svg xmlns="http://www.w3.org/2000/svg" viewBox="0 0 511.996 511.996"><path d="M320.107 202.568a10.63 10.63 0 0 0 7.531-3.117l117.78-117.772c4.156-4.164 4.156-10.914 0-15.078-4.172-4.164-10.922-4.164-15.094 0L312.56 184.365c-4.172 4.164-4.172 10.922 0 15.086a10.64 10.64 0 0 0 7.547 3.117z"/><path d="M344.686 257.81L505.73 96.765a21.2 21.2 0 0 0 6.25-15.086 21.167 21.167 0 0 0-6.25-15.078L445.402 6.273c-4.016-4.031-9.375-6.25-15.078-6.25s-11.047 2.219-15.077 6.242L252.232 169.287a20.821 20.821 0 0 0-3.094 3.914c-12.047-10.664-21.438-18.968-26.906-23.812 4.546-17.422 13.484-63.75-9.094-97.375-12.359-18.406-26.828-32.14-43.016-40.819C156.263 3.765 141.107 0 125.076 0 85.717 0 54.295 22.68 52.983 23.648l-12.312 9.015 80.953 53.961 2.031 18.242-15.422 22.281-31.343.008L1.781 89.601l1.641 18.977c.078.969 2.203 24.109 14.766 47.43 10.266 19.054 24.453 32.741 41.89 40.71l-12.422 17.938 96.906 8.812c6.734 7.68 23.921 27.266 46.171 52.562L81.812 384.949v.016l-6.312 6.312-30.984 15.484-44.5 62.297 42.937 42.938 62.296-44.5 15.484-30.969 6.328-6.328 106.03-106.047c61.609 69.906 134.062 151.703 148.233 165.875 14.094 14.094 32.844 21.844 52.78 21.844 19.938 0 38.688-7.75 52.781-21.844 29.109-29.125 29.109-76.469 0-105.594-4.342-4.343-74.482-66.624-142.199-126.623zm-62.298-88.523c2.094 2.078 4.812 3.117 7.547 3.117s5.453-1.039 7.547-3.117L415.247 51.515c4.155-4.164 4.155-10.914 0-15.078l15.077-15.085 60.328 60.327-15.078 15.086c-4.172-4.164-10.922-4.164-15.078 0L342.732 214.529c-4.172 4.164-4.172 10.922 0 15.086l-14.031 14.031c-6.25-5.539-12.422-11.008-18.484-16.375l-42.907-42.906 15.078-15.078zm-162.389-21.655l17.422 9.531-5.828 8.483-17.453-9.554 5.859-8.46zm12.203-17.633l5.797-8.375 17.328 9.484-5.766 8.391-17.359-9.5zm-94.937 16.437c-3.641-6.641-6.25-13.344-8.125-19.305l42.718 21.359 21.609-.008-20.984 30.296c-14.765-5.71-26.562-16.514-35.218-32.342zm65.937 277.435l-14.671 29.344-43.266 30.922-17.39-17.391 30.906-43.281 29.344-14.656 1.234-1.234 15.078 15.078-1.235 1.218zm16.313-16.297l-15.078-15.078L204.843 292.09c4.578 5.188 9.297 10.562 14.125 16.031l-99.453 99.453zm352.294 67.36c-10.078 10.062-23.453 15.625-37.703 15.625s-27.64-5.562-37.702-15.625c-24.469-24.469-236.467-266.295-238.607-268.732l-2.814-3.204-68.984-6.273 15.921-23 27.891 15.258a10.628 10.628 0 0 0 5.109 1.312c3.406 0 6.734-1.641 8.797-4.633l35.875-52.202c1.703-2.492 2.281-5.578 1.578-8.516s-2.609-5.438-5.25-6.883l-31.234-17.094-2.953-26.578-62.296-41.531c10.984-5.39 27.484-11.53 45.64-11.53 27.719 0 51.39 14.327 70.359 42.577 21.828 32.516 4.734 85.094 4.562 85.609l-2.25 6.703 5.297 4.679c72.437 64.07 261.935 231.834 268.763 238.631 20.797 20.782 20.797 54.625.001 75.407z"/><path d="M239.248 224.881c-4.172-4.164-10.922-4.164-15.094 0-4.156 4.164-4.156 10.914 0 15.078l150.827 150.818a10.572 10.572 0 0 0 7.531 3.125c2.734 0 5.469-1.031 7.547-3.125 4.172-4.156 4.172-10.906 0-15.078L239.248 224.881zM435.309 404.027c-8.547 0-16.578 3.344-22.624 9.375-6.047 6.047-9.375 14.078-9.375 22.625s3.328 16.578 9.375 22.625c6.046 6.031 14.077 9.375 22.624 9.375s16.578-3.344 22.625-9.375c12.469-12.469 12.469-32.781 0-45.25-6.047-6.031-14.079-9.375-22.625-9.375zm7.546 39.532c-2.016 2.031-4.703 3.125-7.547 3.125s-5.531-1.094-7.547-3.125c-2.016-2-3.125-4.688-3.125-7.531s1.109-5.531 3.125-7.547 4.703-3.109 7.547-3.109 5.531 1.094 7.547 3.109c4.157 4.171 4.157 10.921 0 15.078z"/></svg>