<svg xmlns="http://www.w3.org/2000/svg" version="1.1" id="Layer_1" x="0px" y="0px" viewBox="0 0 300 300"
     style="enable-background:new 0 0 300 300;" xml:space="preserve" width="50" height="50">
	<path style="fill:#C4C8C4;" d="M184,101.25v164h-68v-164H184z"/>
    <rect x="116" y="101.25" style="fill:#A5A9A6;" width="34" height="164"/>
    <path style="fill:#1C7287;"
          d="M277.87,198.75H22.13C9.908,198.75,0,188.842,0,176.62V36.88c0-12.222,9.908-22.13,22.13-22.13   H277.87c12.222,0,22.13,9.908,22.13,22.13V176.62C300,188.842,290.092,198.75,277.87,198.75z"/>
    <path style="fill:#165C6C;"
          d="M150,198.75H22.13C9.908,198.75,0,188.842,0,176.62V36.88c0-12.222,9.908-22.13,22.13-22.13H150   V198.75z"/>
    <rect x="26" y="41.818" style="fill:#32A5B9;" width="248" height="129.865"/>
    <rect x="26" y="41.818" style="fill:#2B8A9A;" width="124" height="129.865"/>
    <path style="fill:#1C7287;"
          d="M219,285.25H81c-8.284,0-15-6.716-15-15s6.716-15,15-15h138c8.284,0,15,6.716,15,15   S227.284,285.25,219,285.25z"/>
    <path style="fill:#165C6C;" d="M150,285.25H81c-8.284,0-15-6.716-15-15s6.716-15,15-15h69V285.25z"/>
</svg>
